<svg xmlns="http://www.w3.org/2000/svg" xmlns:xlink="http://www.w3.org/1999/xlink" width="80" zoomAndPan="magnify" viewBox="0 0 60 60" height="80" preserveAspectRatio="xMidYMid meet" version="1.0"><path fill="#101820" d="M 60 32.671875 C 59.910156 33.605469 59.777344 34.53125 59.601562 35.449219 C 59.425781 36.371094 59.203125 37.277344 58.941406 38.175781 C 58.679688 39.078125 58.375 39.960938 58.03125 40.832031 C 57.683594 41.703125 57.300781 42.554688 56.875 43.386719 C 56.449219 44.222656 55.984375 45.035156 55.480469 45.824219 C 54.980469 46.613281 54.441406 47.378906 53.867188 48.117188 C 53.292969 48.859375 52.683594 49.570312 52.042969 50.25 C 51.402344 50.933594 50.730469 51.582031 50.027344 52.203125 C 49.324219 52.820312 48.59375 53.40625 47.839844 53.957031 C 47.082031 54.507812 46.296875 55.019531 45.492188 55.496094 C 44.6875 55.972656 43.859375 56.410156 43.011719 56.808594 C 42.167969 57.207031 41.300781 57.566406 40.421875 57.882812 C 39.539062 58.203125 38.648438 58.476562 37.738281 58.710938 C 36.832031 58.945312 35.917969 59.132812 34.992188 59.28125 C 34.066406 59.429688 33.140625 59.53125 32.203125 59.589844 C 31.269531 59.652344 30.335938 59.667969 29.398438 59.636719 C 28.464844 59.609375 27.53125 59.535156 26.601562 59.421875 C 25.671875 59.304688 24.75 59.144531 23.835938 58.941406 C 22.921875 58.738281 22.019531 58.492188 21.128906 58.203125 C 20.238281 57.917969 19.363281 57.585938 18.503906 57.21875 C 17.644531 56.847656 16.804688 56.4375 15.980469 55.988281 C 15.160156 55.539062 14.363281 55.050781 13.585938 54.523438 C 12.8125 54 12.0625 53.441406 11.339844 52.84375 C 10.617188 52.25 9.925781 51.621094 9.261719 50.960938 C 8.597656 50.300781 7.964844 49.609375 7.367188 48.890625 C 6.769531 48.167969 6.207031 47.421875 5.675781 46.648438 C 5.148438 45.878906 4.660156 45.082031 4.207031 44.261719 C 3.753906 43.441406 3.339844 42.605469 2.964844 41.746094 C 2.589844 40.886719 2.257812 40.011719 1.964844 39.125 C 1.671875 38.234375 1.421875 37.332031 1.214844 36.417969 C 1.007812 35.507812 0.84375 34.585938 0.726562 33.65625 C 0.605469 32.726562 0.527344 31.796875 0.496094 30.859375 C 0.464844 29.925781 0.476562 28.988281 0.53125 28.054688 C 0.585938 27.121094 0.683594 26.191406 0.828125 25.265625 C 0.972656 24.339844 1.15625 23.421875 1.386719 22.515625 C 1.617188 21.609375 1.886719 20.710938 2.199219 19.832031 C 2.515625 18.949219 2.867188 18.082031 3.265625 17.234375 C 3.660156 16.386719 4.09375 15.554688 4.566406 14.75 C 5.039062 13.941406 5.550781 13.15625 6.097656 12.398438 C 6.644531 11.636719 7.226562 10.90625 7.839844 10.199219 C 8.457031 9.492188 9.105469 8.820312 9.785156 8.175781 C 10.464844 7.53125 11.171875 6.921875 11.910156 6.34375 C 12.644531 5.765625 13.410156 5.222656 14.195312 4.71875 C 14.984375 4.210938 15.792969 3.746094 16.625 3.316406 C 17.457031 2.886719 18.308594 2.496094 19.175781 2.148438 C 20.046875 1.796875 20.929688 1.488281 21.828125 1.222656 C 22.726562 0.957031 23.632812 0.734375 24.550781 0.554688 C 25.46875 0.371094 26.394531 0.234375 27.328125 0.140625 C 27.671875 0.0898438 27.992188 0.160156 28.285156 0.34375 C 28.582031 0.527344 28.78125 0.785156 28.886719 1.117188 C 28.992188 1.449219 28.980469 1.773438 28.847656 2.097656 C 28.710938 2.417969 28.488281 2.65625 28.179688 2.816406 C 27.464844 3.214844 26.773438 3.65625 26.109375 4.136719 C 25.445312 4.617188 24.808594 5.132812 24.207031 5.683594 C 23.601562 6.238281 23.03125 6.824219 22.492188 7.445312 C 21.953125 8.0625 21.453125 8.710938 20.992188 9.386719 C 20.53125 10.066406 20.109375 10.765625 19.726562 11.492188 C 19.34375 12.21875 19.007812 12.964844 18.710938 13.726562 C 18.414062 14.492188 18.164062 15.273438 17.960938 16.066406 C 17.753906 16.859375 17.597656 17.664062 17.484375 18.476562 C 17.371094 19.285156 17.304688 20.101562 17.285156 20.921875 C 17.269531 21.742188 17.296875 22.558594 17.371094 23.375 C 17.449219 24.191406 17.570312 25 17.742188 25.804688 C 17.910156 26.605469 18.125 27.394531 18.386719 28.171875 C 18.644531 28.949219 18.949219 29.710938 19.300781 30.453125 C 19.648438 31.195312 20.039062 31.914062 20.46875 32.609375 C 20.898438 33.308594 21.371094 33.976562 21.878906 34.621094 C 22.386719 35.265625 22.933594 35.875 23.511719 36.457031 C 24.089844 37.035156 24.703125 37.578125 25.34375 38.089844 C 25.988281 38.597656 26.65625 39.070312 27.351562 39.5 C 28.050781 39.933594 28.769531 40.324219 29.511719 40.671875 C 30.253906 41.023438 31.011719 41.328125 31.789062 41.589844 C 32.566406 41.851562 33.355469 42.066406 34.15625 42.238281 C 34.960938 42.40625 35.769531 42.53125 36.585938 42.605469 C 37.402344 42.683594 38.21875 42.714844 39.039062 42.695312 C 39.859375 42.679688 40.675781 42.613281 41.488281 42.5 C 42.296875 42.390625 43.101562 42.230469 43.894531 42.027344 C 44.6875 41.820312 45.46875 41.574219 46.234375 41.277344 C 47 40.984375 47.746094 40.644531 48.46875 40.265625 C 49.195312 39.882812 49.898438 39.460938 50.574219 39 C 51.253906 38.539062 51.902344 38.039062 52.523438 37.503906 C 53.140625 36.964844 53.726562 36.394531 54.28125 35.792969 C 54.835938 35.1875 55.351562 34.554688 55.832031 33.890625 C 56.316406 33.222656 56.753906 32.535156 57.15625 31.820312 C 57.34375 31.542969 57.597656 31.355469 57.917969 31.253906 C 58.234375 31.15625 58.550781 31.164062 58.863281 31.28125 C 59.195312 31.347656 59.464844 31.511719 59.679688 31.773438 C 59.894531 32.035156 60 32.335938 60 32.671875 Z M 60 32.671875 " fill-opacity="1" fill-rule="nonzero"/></svg>