<svg xmlns="http://www.w3.org/2000/svg" xmlns:xlink="http://www.w3.org/1999/xlink" width="80" zoomAndPan="magnify" viewBox="0 0 60 60" height="80" preserveAspectRatio="xMidYMid meet" version="1.0"><path fill="#101820" d="M 11.585938 43.449219 L 48.414062 43.449219 L 48.414062 16.550781 L 11.585938 16.550781 Z M 13.65625 41.378906 L 13.65625 19.765625 L 30 31.265625 L 46.34375 19.765625 L 46.34375 41.378906 Z M 15.625 18.621094 L 44.375 18.621094 L 30 28.734375 Z M 15.625 18.621094 " fill-opacity="1" fill-rule="nonzero"/><path fill="#101820" d="M 30 0 C 29.015625 0 28.039062 0.046875 27.058594 0.144531 C 26.082031 0.242188 25.109375 0.382812 24.148438 0.578125 C 23.183594 0.769531 22.230469 1.007812 21.292969 1.292969 C 20.351562 1.578125 19.425781 1.90625 18.519531 2.285156 C 17.613281 2.660156 16.726562 3.078125 15.859375 3.542969 C 14.992188 4.003906 14.148438 4.511719 13.332031 5.054688 C 12.515625 5.601562 11.726562 6.1875 10.96875 6.808594 C 10.207031 7.433594 9.480469 8.09375 8.785156 8.785156 C 8.09375 9.480469 7.433594 10.207031 6.808594 10.96875 C 6.1875 11.726562 5.601562 12.515625 5.054688 13.332031 C 4.511719 14.148438 4.003906 14.992188 3.542969 15.859375 C 3.078125 16.726562 2.660156 17.613281 2.285156 18.519531 C 1.90625 19.425781 1.578125 20.351562 1.292969 21.292969 C 1.007812 22.230469 0.769531 23.183594 0.578125 24.148438 C 0.382812 25.109375 0.242188 26.082031 0.144531 27.058594 C 0.046875 28.039062 0 29.015625 0 30 C 0 30.984375 0.046875 31.960938 0.144531 32.941406 C 0.242188 33.917969 0.382812 34.890625 0.578125 35.851562 C 0.769531 36.816406 1.007812 37.769531 1.292969 38.707031 C 1.578125 39.648438 1.90625 40.574219 2.285156 41.480469 C 2.660156 42.386719 3.078125 43.273438 3.542969 44.140625 C 4.003906 45.007812 4.511719 45.851562 5.054688 46.667969 C 5.601562 47.484375 6.1875 48.273438 6.808594 49.03125 C 7.433594 49.792969 8.09375 50.519531 8.785156 51.214844 C 9.480469 51.90625 10.207031 52.566406 10.96875 53.191406 C 11.726562 53.8125 12.515625 54.398438 13.332031 54.945312 C 14.148438 55.488281 14.992188 55.996094 15.859375 56.457031 C 16.726562 56.921875 17.613281 57.339844 18.519531 57.714844 C 19.425781 58.09375 20.351562 58.421875 21.292969 58.707031 C 22.230469 58.992188 23.183594 59.230469 24.148438 59.421875 C 25.109375 59.617188 26.082031 59.757812 27.058594 59.855469 C 28.039062 59.953125 29.015625 60 30 60 C 30.984375 60 31.960938 59.953125 32.941406 59.855469 C 33.917969 59.757812 34.890625 59.617188 35.851562 59.421875 C 36.816406 59.230469 37.769531 58.992188 38.707031 58.707031 C 39.648438 58.421875 40.574219 58.09375 41.480469 57.714844 C 42.386719 57.339844 43.273438 56.921875 44.140625 56.457031 C 45.007812 55.996094 45.851562 55.488281 46.667969 54.945312 C 47.484375 54.398438 48.273438 53.8125 49.03125 53.191406 C 49.792969 52.566406 50.519531 51.90625 51.214844 51.214844 C 51.90625 50.519531 52.566406 49.792969 53.191406 49.03125 C 53.8125 48.273438 54.398438 47.484375 54.945312 46.667969 C 55.488281 45.851562 55.996094 45.007812 56.457031 44.140625 C 56.921875 43.273438 57.339844 42.386719 57.714844 41.480469 C 58.09375 40.574219 58.421875 39.648438 58.707031 38.707031 C 58.992188 37.769531 59.230469 36.816406 59.421875 35.851562 C 59.617188 34.890625 59.757812 33.917969 59.855469 32.941406 C 59.953125 31.960938 60 30.984375 60 30 C 60 29.019531 59.949219 28.039062 59.851562 27.0625 C 59.753906 26.082031 59.609375 25.113281 59.417969 24.148438 C 59.226562 23.1875 58.988281 22.234375 58.699219 21.296875 C 58.414062 20.355469 58.082031 19.433594 57.707031 18.523438 C 57.332031 17.617188 56.910156 16.730469 56.449219 15.863281 C 55.984375 15 55.480469 14.15625 54.933594 13.339844 C 54.386719 12.523438 53.804688 11.738281 53.179688 10.976562 C 52.558594 10.21875 51.898438 9.492188 51.203125 8.796875 C 50.507812 8.101562 49.78125 7.441406 49.023438 6.820312 C 48.261719 6.195312 47.476562 5.613281 46.660156 5.066406 C 45.84375 4.519531 45 4.015625 44.136719 3.550781 C 43.269531 3.089844 42.382812 2.667969 41.476562 2.292969 C 40.566406 1.917969 39.644531 1.585938 38.703125 1.300781 C 37.765625 1.011719 36.8125 0.773438 35.851562 0.582031 C 34.886719 0.390625 33.917969 0.246094 32.9375 0.148438 C 31.960938 0.0507812 30.980469 0 30 0 Z M 30 57.929688 C 29.085938 57.929688 28.171875 57.886719 27.261719 57.796875 C 26.351562 57.707031 25.449219 57.574219 24.550781 57.394531 C 23.652344 57.214844 22.765625 56.992188 21.890625 56.726562 C 21.015625 56.460938 20.15625 56.15625 19.3125 55.804688 C 18.464844 55.453125 17.640625 55.0625 16.832031 54.632812 C 16.027344 54.203125 15.242188 53.730469 14.480469 53.222656 C 13.722656 52.714844 12.988281 52.171875 12.28125 51.589844 C 11.574219 51.011719 10.898438 50.398438 10.25 49.75 C 9.601562 49.101562 8.988281 48.425781 8.410156 47.71875 C 7.828125 47.011719 7.285156 46.277344 6.777344 45.519531 C 6.269531 44.757812 5.796875 43.972656 5.367188 43.167969 C 4.9375 42.359375 4.546875 41.535156 4.195312 40.6875 C 3.84375 39.84375 3.539062 38.984375 3.273438 38.109375 C 3.007812 37.234375 2.785156 36.347656 2.605469 35.449219 C 2.425781 34.550781 2.292969 33.648438 2.203125 32.738281 C 2.113281 31.828125 2.070312 30.914062 2.070312 30 C 2.070312 29.085938 2.113281 28.171875 2.203125 27.261719 C 2.292969 26.351562 2.425781 25.449219 2.605469 24.550781 C 2.785156 23.652344 3.007812 22.765625 3.273438 21.890625 C 3.539062 21.015625 3.84375 20.15625 4.195312 19.3125 C 4.546875 18.464844 4.9375 17.640625 5.367188 16.832031 C 5.796875 16.027344 6.269531 15.242188 6.777344 14.480469 C 7.285156 13.722656 7.828125 12.988281 8.410156 12.28125 C 8.988281 11.574219 9.601562 10.898438 10.25 10.25 C 10.898438 9.601562 11.574219 8.988281 12.28125 8.410156 C 12.988281 7.828125 13.722656 7.285156 14.480469 6.777344 C 15.242188 6.269531 16.027344 5.796875 16.832031 5.367188 C 17.640625 4.9375 18.464844 4.546875 19.3125 4.195312 C 20.15625 3.84375 21.015625 3.539062 21.890625 3.273438 C 22.765625 3.007812 23.652344 2.785156 24.550781 2.605469 C 25.449219 2.425781 26.351562 2.292969 27.261719 2.203125 C 28.171875 2.113281 29.085938 2.070312 30 2.070312 C 30.914062 2.070312 31.828125 2.113281 32.738281 2.203125 C 33.648438 2.292969 34.550781 2.425781 35.449219 2.605469 C 36.347656 2.785156 37.234375 3.007812 38.109375 3.273438 C 38.984375 3.539062 39.84375 3.84375 40.6875 4.195312 C 41.535156 4.546875 42.359375 4.9375 43.167969 5.367188 C 43.972656 5.796875 44.757812 6.269531 45.519531 6.777344 C 46.277344 7.285156 47.011719 7.828125 47.71875 8.410156 C 48.425781 8.988281 49.101562 9.601562 49.75 10.25 C 50.398438 10.898438 51.011719 11.574219 51.589844 12.28125 C 52.171875 12.988281 52.714844 13.722656 53.222656 14.480469 C 53.730469 15.242188 54.203125 16.027344 54.632812 16.832031 C 55.0625 17.640625 55.453125 18.464844 55.804688 19.3125 C 56.15625 20.15625 56.460938 21.015625 56.726562 21.890625 C 56.992188 22.765625 57.214844 23.652344 57.394531 24.550781 C 57.574219 25.449219 57.707031 26.351562 57.796875 27.261719 C 57.886719 28.171875 57.929688 29.085938 57.929688 30 C 57.929688 30.914062 57.882812 31.828125 57.792969 32.738281 C 57.703125 33.648438 57.570312 34.550781 57.390625 35.445312 C 57.210938 36.34375 56.988281 37.230469 56.722656 38.105469 C 56.457031 38.980469 56.148438 39.839844 55.796875 40.683594 C 55.445312 41.527344 55.054688 42.355469 54.625 43.160156 C 54.191406 43.96875 53.722656 44.75 53.214844 45.511719 C 52.707031 46.269531 52.160156 47.003906 51.582031 47.710938 C 51 48.417969 50.386719 49.09375 49.742188 49.742188 C 49.09375 50.386719 48.417969 51 47.710938 51.582031 C 47.003906 52.160156 46.269531 52.707031 45.511719 53.214844 C 44.75 53.722656 43.964844 54.191406 43.160156 54.625 C 42.355469 55.054688 41.527344 55.445312 40.683594 55.796875 C 39.839844 56.148438 38.980469 56.457031 38.105469 56.722656 C 37.230469 56.988281 36.34375 57.210938 35.445312 57.390625 C 34.550781 57.570312 33.648438 57.703125 32.738281 57.792969 C 31.828125 57.882812 30.914062 57.929688 30 57.929688 Z M 30 57.929688 " fill-opacity="1" fill-rule="nonzero"/></svg>