<svg xmlns="http://www.w3.org/2000/svg" xmlns:xlink="http://www.w3.org/1999/xlink" width="80" zoomAndPan="magnify" viewBox="0 0 60 60" height="80" preserveAspectRatio="xMidYMid meet" version="1.0"><defs><clipPath id="6e0b84227b"><path d="M 3.261719 0 L 56.511719 0 L 56.511719 60 L 3.261719 60 Z M 3.261719 0 " clip-rule="nonzero"/></clipPath></defs><g clip-path="url(#6e0b84227b)"><path fill="#101820" d="M 56.441406 0.5 C 56.195312 0.230469 55.847656 0.0742188 55.480469 0.0742188 L 4.648438 0.0742188 C 4.28125 0.0742188 3.933594 0.230469 3.6875 0.5 C 3.4375 0.769531 3.320312 1.128906 3.351562 1.492188 L 7.929688 52.789062 C 7.980469 53.324219 8.351562 53.777344 8.871094 53.925781 L 29.699219 59.875 C 29.816406 59.90625 29.9375 59.925781 30.058594 59.925781 C 30.179688 59.925781 30.296875 59.90625 30.414062 59.875 L 51.261719 53.925781 C 51.78125 53.777344 52.152344 53.324219 52.199219 52.789062 L 56.777344 1.492188 C 56.808594 1.128906 56.6875 0.769531 56.441406 0.5 Z M 45.476562 18.183594 L 21.003906 18.183594 L 21.585938 24.808594 L 44.886719 24.808594 L 43.140625 44.375 L 30.054688 48.332031 L 29.925781 48.292969 L 16.992188 44.375 L 16.289062 36.398438 L 22.621094 36.398438 L 22.898438 39.496094 L 30.128906 41.007812 L 37.230469 39.492188 L 37.984375 31.121094 L 15.8125 31.121094 L 14.09375 11.855469 L 46.042969 11.855469 Z M 45.476562 18.183594 " fill-opacity="1" fill-rule="nonzero"/></g></svg>