<svg xmlns="http://www.w3.org/2000/svg" xmlns:xlink="http://www.w3.org/1999/xlink" width="80" zoomAndPan="magnify" viewBox="0 0 60 60" height="80" preserveAspectRatio="xMidYMid meet" version="1.0"><path fill="#101820" d="M 0 0 L 0 60 L 60 60 L 60 0 Z M 5.453125 5.453125 L 54.546875 5.453125 L 54.546875 54.546875 L 5.453125 54.546875 Z M 41.574219 27.273438 C 37.6875 27.273438 35.175781 29.761719 35.175781 33.050781 C 35.175781 36.628906 37.273438 38.335938 40.433594 39.683594 L 41.527344 40.152344 C 43.523438 41.035156 44.710938 41.546875 44.710938 43.050781 C 44.710938 44.320312 43.546875 45.230469 41.734375 45.230469 C 39.585938 45.230469 38.363281 44.089844 37.429688 42.558594 L 33.855469 44.605469 C 35.125 47.144531 37.765625 49.089844 41.835938 49.089844 C 45.980469 49.089844 49.089844 46.941406 49.089844 43.003906 C 49.089844 39.324219 46.992188 37.6875 43.257812 36.109375 L 42.171875 35.640625 C 40.28125 34.8125 39.476562 34.269531 39.476562 32.972656 C 39.476562 31.910156 40.28125 31.082031 41.574219 31.082031 C 42.847656 31.082031 43.644531 31.625 44.398438 32.972656 L 47.824219 30.773438 C 46.371094 28.234375 44.375 27.273438 41.574219 27.273438 Z M 25.621094 27.535156 L 25.621094 42.433594 C 25.621094 44.609375 24.6875 45.175781 23.261719 45.175781 C 21.757812 45.175781 21.113281 44.140625 20.4375 42.921875 L 16.863281 45.074219 C 17.902344 47.277344 19.945312 49.089844 23.441406 49.089844 C 27.328125 49.089844 30 47.015625 30 42.480469 L 30 27.535156 Z M 25.621094 27.535156 " fill-opacity="1" fill-rule="nonzero"/></svg>