<svg xmlns="http://www.w3.org/2000/svg" xmlns:xlink="http://www.w3.org/1999/xlink" width="80" zoomAndPan="magnify" viewBox="0 0 60 60" height="80" preserveAspectRatio="xMidYMid meet" version="1.0"><path stroke-linecap="round" transform="matrix(0.731707, 0, 0, 0.731707, -6.585365, -6.585363)" fill="none" stroke-linejoin="round" d="M 71.172664 50.000002 C 71.172664 61.696749 61.696751 71.178 50.000005 71.178 C 38.303259 71.178 28.822007 61.696749 28.822007 50.000002 C 28.822007 38.303256 38.303259 28.822005 50.000005 28.822005 C 61.696751 28.822005 71.172664 38.303256 71.172664 50.000002 Z M 71.172664 50.000002 " stroke="#000000" stroke-width="2" stroke-opacity="1" stroke-miterlimit="10"/><path stroke-linecap="round" transform="matrix(0.731707, 0, 0, 0.731707, -6.585365, -6.585363)" fill="none" stroke-linejoin="round" d="M 79.810426 53.769013 L 90.001703 50.005341 L 79.810426 46.230991 C 76.16954 44.885679 75.219279 41.340886 77.696363 38.351303 L 84.641807 29.991145 L 73.927352 31.832942 C 70.099617 32.489583 67.505085 29.90039 68.167065 26.072655 L 70.008862 15.358201 L 61.648704 22.303644 C 58.664459 24.780728 55.114329 23.830467 53.769016 20.19492 L 50.000005 9.998304 L 46.230994 20.189582 C 44.880343 23.830467 41.335551 24.780728 38.351305 22.298306 L 29.991148 15.358201 L 31.832945 26.072655 C 32.494924 29.90039 29.900393 32.489583 26.072658 31.832942 L 15.358203 29.985807 L 22.298309 38.345964 C 24.780731 41.335548 23.83047 44.88034 20.189584 46.225653 L 9.998307 49.994664 L 20.189584 53.769013 C 23.83047 55.114326 24.780731 58.664457 22.298309 61.648702 L 15.352865 70.008859 L 26.072658 68.167062 C 29.895054 67.505083 32.489586 70.099614 31.832945 73.927349 L 29.991148 84.641804 L 38.351305 77.69636 C 41.335551 75.219277 44.880343 76.169537 46.230994 79.810423 L 50.000005 90.0017 L 53.769016 79.810423 C 55.114329 76.169537 58.659121 75.219277 61.648704 77.701699 L 70.008862 84.641804 L 68.161726 73.927349 C 67.505085 70.099614 70.099617 67.510421 73.922013 68.167062 L 84.636468 70.014198 L 77.696363 61.65404 C 75.219279 58.664457 76.16954 55.119664 79.810426 53.769013 Z M 50.000005 71.178 C 38.303259 71.178 28.822007 61.696749 28.822007 50.000002 C 28.822007 38.303256 38.303259 28.822005 50.000005 28.822005 C 61.696751 28.822005 71.172664 38.303256 71.172664 50.000002 C 71.172664 61.696749 61.696751 71.178 50.000005 71.178 Z M 50.000005 71.178 " stroke="#000000" stroke-width="2" stroke-opacity="1" stroke-miterlimit="10"/></svg>