<svg xmlns="http://www.w3.org/2000/svg" xmlns:xlink="http://www.w3.org/1999/xlink" width="80" zoomAndPan="magnify" viewBox="0 0 60 60" height="80" preserveAspectRatio="xMidYMid meet" version="1.0"><defs><clipPath id="3beff0ddb6"><path d="M 2.78125 0 L 57 0 L 57 60 L 2.78125 60 Z M 2.78125 0 " clip-rule="nonzero"/></clipPath></defs><g clip-path="url(#3beff0ddb6)"><path fill="#101820" d="M 27.488281 0.796875 C 28.980469 -0.046875 30.886719 -0.0507812 32.347656 0.796875 L 54.671875 13.382812 C 56.066406 14.167969 57.003906 15.726562 56.988281 17.335938 L 56.988281 42.566406 C 57 44.246094 55.972656 45.835938 54.5 46.605469 L 32.292969 59.132812 C 31.519531 59.558594 30.691406 59.761719 29.808594 59.738281 C 28.925781 59.710938 28.109375 59.464844 27.359375 58.996094 L 20.699219 55.144531 C 20.242188 54.875 19.734375 54.660156 19.410156 54.21875 C 19.695312 53.839844 20.199219 53.789062 20.613281 53.621094 C 21.539062 53.328125 22.386719 52.875 23.238281 52.394531 C 23.453125 52.246094 23.71875 52.304688 23.925781 52.4375 L 29.605469 55.722656 C 30.011719 55.957031 30.421875 55.648438 30.769531 55.453125 L 52.574219 43.148438 C 52.84375 43.015625 52.992188 42.734375 52.96875 42.4375 L 52.96875 17.445312 C 53 17.109375 52.808594 16.804688 52.503906 16.667969 L 30.355469 4.195312 C 30.066406 3.996094 29.773438 3.992188 29.484375 4.191406 L 7.367188 16.691406 C 7.066406 16.828125 6.863281 17.128906 6.898438 17.46875 L 6.898438 42.457031 C 6.875 42.753906 7.03125 43.03125 7.300781 43.160156 L 13.210938 46.496094 C 14.320312 47.09375 15.683594 47.429688 16.90625 46.992188 C 17.453125 46.785156 17.894531 46.441406 18.226562 45.957031 C 18.558594 45.476562 18.722656 44.941406 18.722656 44.355469 L 18.726562 19.515625 C 18.703125 19.148438 19.050781 18.84375 19.40625 18.878906 L 22.246094 18.878906 C 22.621094 18.871094 22.914062 19.265625 22.863281 19.636719 L 22.859375 44.636719 C 22.859375 46.855469 21.949219 49.269531 19.894531 50.359375 C 17.363281 51.667969 14.234375 51.394531 11.734375 50.136719 L 5.378906 46.621094 C 3.882812 45.875 2.878906 44.261719 2.886719 42.585938 L 2.886719 17.351562 C 2.894531 16.515625 3.113281 15.742188 3.542969 15.023438 C 3.96875 14.308594 4.550781 13.75 5.285156 13.347656 Z M 33.925781 18.289062 C 37.152344 18.101562 40.609375 18.167969 43.511719 19.757812 C 45.761719 20.976562 47.007812 23.53125 47.050781 26.035156 C 46.984375 26.371094 46.632812 26.558594 46.3125 26.53125 C 45.378906 26.53125 44.441406 26.546875 43.5 26.527344 C 43.101562 26.542969 42.875 26.175781 42.824219 25.824219 C 42.554688 24.628906 41.902344 23.445312 40.777344 22.867188 C 39.050781 22 37.046875 22.042969 35.160156 22.0625 C 33.785156 22.136719 32.308594 22.257812 31.140625 23.0625 C 30.246094 23.675781 29.976562 24.933594 30.296875 25.910156 C 30.59375 26.625 31.421875 26.855469 32.097656 27.066406 C 35.988281 28.085938 40.109375 28 43.929688 29.324219 C 45.507812 29.871094 47.054688 30.929688 47.597656 32.585938 C 48.304688 34.800781 47.996094 37.453125 46.417969 39.230469 C 45.140625 40.695312 43.277344 41.476562 41.417969 41.925781 C 38.945312 42.476562 36.382812 42.492188 33.871094 42.246094 C 31.511719 41.976562 29.054688 41.355469 27.230469 39.746094 C 25.671875 38.394531 24.914062 36.285156 24.988281 34.253906 C 25.007812 33.910156 25.351562 33.667969 25.679688 33.695312 L 28.484375 33.695312 C 28.863281 33.671875 29.140625 33.996094 29.15625 34.351562 C 29.332031 35.472656 29.757812 36.6875 30.753906 37.34375 C 32.671875 38.578125 35.078125 38.492188 37.273438 38.527344 C 39.089844 38.449219 41.132812 38.425781 42.617188 37.21875 C 43.402344 36.535156 43.632812 35.390625 43.421875 34.402344 C 43.191406 33.566406 42.300781 33.179688 41.550781 32.90625 C 37.710938 31.691406 33.542969 32.132812 29.738281 30.757812 C 28.195312 30.210938 26.703125 29.179688 26.109375 27.59375 C 25.28125 25.347656 25.660156 22.570312 27.402344 20.851562 C 29.085938 19.140625 31.554688 18.480469 33.890625 18.246094 Z M 33.925781 18.289062 " fill-opacity="1" fill-rule="nonzero"/></g></svg>