<svg xmlns="http://www.w3.org/2000/svg" xmlns:xlink="http://www.w3.org/1999/xlink" width="80" zoomAndPan="magnify" viewBox="0 0 60 60" height="80" preserveAspectRatio="xMidYMid meet" version="1.0"><path fill="#101820" d="M 30 60 C 13.457031 60 0 46.542969 0 30 C 0 13.457031 13.457031 0 30 0 C 46.542969 0 60 13.457031 60 30 C 60 46.542969 46.542969 60 30 60 Z M 30 2.5 C 14.835938 2.5 2.5 14.835938 2.5 30 C 2.5 45.164062 14.835938 57.5 30 57.5 C 45.164062 57.5 57.5 45.164062 57.5 30 C 57.5 14.835938 45.164062 2.5 30 2.5 Z M 30 2.5 " fill-opacity="1" fill-rule="nonzero"/><path fill="#101820" d="M 38.675781 47.507812 C 36.136719 47.507812 33.523438 46.828125 31.433594 46.175781 C 27.328125 44.894531 23.539062 42.597656 20.46875 39.53125 C 16.34375 35.40625 13.53125 29.894531 12.75 24.414062 C 12.398438 21.953125 12.195312 18.808594 13.734375 16.296875 C 15.175781 13.953125 17.777344 12.5 20.53125 12.5 C 21.011719 12.5 21.476562 12.550781 21.921875 12.628906 C 21.945312 12.632812 21.96875 12.636719 21.992188 12.640625 C 23.542969 12.929688 24.769531 14.257812 24.988281 15.886719 L 26.03125 23.699219 C 26.253906 25.347656 25.378906 26.980469 23.898438 27.667969 C 23.738281 27.742188 23.574219 27.816406 23.402344 27.878906 C 24.273438 29.789062 25.472656 31.511719 26.976562 33.015625 C 28.484375 34.523438 30.203125 35.722656 32.117188 36.59375 C 32.179688 36.425781 32.253906 36.261719 32.324219 36.097656 C 33.015625 34.621094 34.648438 33.738281 36.300781 33.96875 L 44.113281 35.011719 C 45.753906 35.230469 47.089844 36.480469 47.363281 38.050781 C 47.449219 38.515625 47.5 38.984375 47.5 39.46875 C 47.5 42.066406 46.234375 44.503906 44.109375 45.996094 C 42.519531 47.109375 40.621094 47.507812 38.675781 47.507812 Z M 20.53125 15 C 18.640625 15 16.851562 15.996094 15.863281 17.605469 C 14.742188 19.433594 14.933594 22.015625 15.226562 24.0625 C 15.929688 29.015625 18.484375 34.011719 22.238281 37.761719 C 25.019531 40.542969 28.457031 42.628906 32.179688 43.789062 C 37.175781 45.34375 40.609375 45.398438 42.671875 43.949219 C 44.109375 42.941406 45 41.222656 45 39.46875 C 45 39.125 44.957031 38.800781 44.90625 38.488281 C 44.816406 37.96875 44.355469 37.5625 43.785156 37.488281 L 35.972656 36.441406 C 35.402344 36.378906 34.828125 36.652344 34.601562 37.148438 C 34.40625 37.566406 34.265625 38.019531 34.179688 38.496094 C 34.113281 38.863281 33.890625 39.175781 33.574219 39.363281 C 33.253906 39.546875 32.863281 39.582031 32.519531 39.453125 C 29.761719 38.441406 27.304688 36.867188 25.21875 34.78125 C 23.136719 32.699219 21.5625 30.242188 20.546875 27.480469 C 20.421875 27.132812 20.453125 26.746094 20.636719 26.425781 C 20.824219 26.105469 21.140625 25.882812 21.503906 25.820312 C 21.980469 25.738281 22.433594 25.59375 22.851562 25.398438 C 23.347656 25.171875 23.640625 24.609375 23.5625 24.027344 L 22.511719 16.214844 C 22.433594 15.640625 22.027344 15.183594 21.523438 15.097656 C 21.4375 15.078125 21.351562 15.058594 21.273438 15.023438 C 21.199219 15.046875 20.871094 15 20.53125 15 Z M 20.53125 15 " fill-opacity="1" fill-rule="nonzero"/></svg>