<svg xmlns="http://www.w3.org/2000/svg" xmlns:xlink="http://www.w3.org/1999/xlink" width="80" zoomAndPan="magnify" viewBox="0 0 60 60" height="80" preserveAspectRatio="xMidYMid meet" version="1.0"><defs><clipPath id="e1232f6861"><path d="M 1.238281 0 L 58.988281 0 L 58.988281 60 L 1.238281 60 Z M 1.238281 0 " clip-rule="nonzero"/></clipPath></defs><path fill="#101820" d="M 54.800781 36.984375 C 54.800781 36.988281 54.800781 36.988281 54.796875 36.988281 C 54.792969 36.988281 54.792969 36.988281 54.792969 36.984375 C 54.792969 36.980469 54.792969 36.980469 54.796875 36.980469 C 54.800781 36.980469 54.800781 36.980469 54.800781 36.984375 Z M 54.800781 36.984375 " fill-opacity="1" fill-rule="nonzero"/><path fill="#101820" d="M 47.453125 36.511719 L 47.457031 36.519531 L 47.449219 36.523438 C 47.089844 36.65625 46.792969 36.710938 46.542969 36.820312 C 46.285156 36.921875 46.082031 37.109375 45.960938 37.347656 L 45.957031 37.351562 C 45.804688 37.636719 45.667969 38.140625 45.710938 39.003906 C 45.8125 39.078125 45.933594 39.132812 46.0625 39.171875 L 46.070312 39.175781 C 46.492188 39.304688 47.191406 39.390625 47.976562 39.375 C 49.539062 39.359375 51.460938 38.988281 52.484375 38.507812 C 53.363281 38.089844 54.117188 37.585938 54.789062 36.984375 C 51.378906 37.699219 49.449219 37.507812 48.269531 37.015625 C 47.960938 36.878906 47.691406 36.714844 47.453125 36.511719 Z M 47.453125 36.511719 " fill-opacity="1" fill-rule="nonzero"/><path fill="#101820" d="M 43.953125 10.292969 L 43.984375 10.332031 Z M 43.953125 10.292969 " fill-opacity="1" fill-rule="nonzero"/><path fill="#101820" d="M 30.90625 47.847656 C 30.902344 47.785156 30.90625 47.722656 30.902344 47.660156 C 30.902344 47.636719 30.898438 47.617188 30.898438 47.59375 Z M 30.90625 47.847656 " fill-opacity="1" fill-rule="nonzero"/><path fill="#101820" d="M 28.289062 36.90625 C 28.144531 36.835938 27.976562 36.785156 27.796875 36.757812 L 27.789062 36.757812 L 27.789062 36.753906 L 27.738281 36.753906 C 27.609375 36.765625 27.417969 36.8125 27.050781 37.21875 C 26.199219 38.1875 25.902344 38.792969 25.199219 39.363281 C 24.492188 39.925781 23.582031 40.230469 21.757812 40.609375 C 21.179688 40.726562 20.847656 40.859375 20.628906 40.964844 C 20.699219 41.027344 20.691406 41.039062 20.800781 41.097656 C 21.066406 41.246094 21.410156 41.378906 21.6875 41.449219 C 22.46875 41.648438 23.761719 41.878906 25.105469 41.648438 C 26.449219 41.414062 27.847656 40.761719 29.039062 39.070312 C 29.242188 38.777344 29.265625 38.34375 29.097656 37.882812 C 28.929688 37.417969 28.550781 37.019531 28.289062 36.90625 Z M 28.289062 36.90625 " fill-opacity="1" fill-rule="nonzero"/><path fill="#101820" d="M 38.300781 3.722656 L 38.160156 3.75 C 38.207031 3.742188 38.257812 3.738281 38.304688 3.726562 C 38.304688 3.726562 38.304688 3.722656 38.300781 3.722656 Z M 38.300781 3.722656 " fill-opacity="1" fill-rule="nonzero"/><path fill="#101820" d="M 45.199219 17.109375 C 43.535156 17.128906 42.601562 17.5625 42.113281 18.132812 C 41.417969 18.9375 41.351562 20.351562 41.785156 22.089844 C 42.214844 23.832031 43.097656 25.78125 43.933594 27.402344 C 44.347656 28.210938 44.753906 28.941406 45.078125 29.535156 C 45.40625 30.128906 45.644531 30.550781 45.792969 30.910156 C 45.925781 31.242188 46.078125 31.535156 46.226562 31.808594 C 46.871094 30.429688 46.984375 29.082031 46.921875 27.671875 C 46.835938 25.929688 46.4375 24.144531 46.496094 22.339844 C 46.5625 20.230469 46.972656 18.859375 47.007812 17.226562 C 46.464844 17.152344 45.835938 17.109375 45.199219 17.109375 Z M 45.507812 18.363281 L 45.503906 18.382812 C 45.503906 18.390625 45.503906 18.398438 45.503906 18.40625 C 45.503906 18.519531 45.472656 18.628906 45.414062 18.71875 L 45.417969 18.714844 C 45.339844 18.859375 45.25 18.980469 45.148438 19.089844 C 44.902344 19.359375 44.578125 19.546875 44.210938 19.613281 L 44.203125 19.613281 C 44.148438 19.621094 44.089844 19.625 44.027344 19.625 C 43.714844 19.625 43.429688 19.523438 43.191406 19.355469 L 43.199219 19.359375 C 43.078125 19.273438 42.96875 19.175781 42.882812 19.070312 L 42.878906 19.066406 C 42.804688 18.980469 42.75 18.871094 42.726562 18.757812 L 42.726562 18.75 C 42.726562 18.738281 42.722656 18.726562 42.722656 18.714844 C 42.722656 18.609375 42.765625 18.507812 42.832031 18.433594 C 42.910156 18.34375 43.003906 18.269531 43.113281 18.214844 L 43.117188 18.210938 C 43.355469 18.078125 43.671875 17.976562 44.03125 17.921875 C 44.164062 17.902344 44.296875 17.894531 44.421875 17.890625 L 44.421875 17.898438 L 44.542969 17.898438 C 44.707031 17.902344 44.855469 17.921875 44.984375 17.953125 C 45.117188 17.984375 45.230469 18.027344 45.324219 18.089844 C 45.414062 18.152344 45.484375 18.246094 45.507812 18.363281 Z M 45.507812 18.363281 " fill-opacity="1" fill-rule="nonzero"/><path fill="#101820" d="M 17.914062 28.035156 C 17.914062 27.585938 17.949219 27.152344 18.011719 26.722656 L 18.007812 26.769531 C 18.261719 24.9375 18.296875 23.222656 18.265625 21.871094 C 18.234375 20.550781 18.140625 19.671875 18.140625 19.125 C 18.140625 19.117188 18.140625 19.109375 18.140625 19.101562 C 18.140625 19.097656 18.140625 19.085938 18.140625 19.078125 L 18.140625 19.046875 C 18.140625 19.042969 18.140625 19.042969 18.140625 19.035156 C 18.140625 16.101562 18.65625 13.285156 19.589844 10.675781 C 20.277344 8.832031 21.296875 6.960938 22.828125 5.441406 C 21.324219 4.941406 18.65625 4.175781 15.765625 4.035156 C 15.484375 4.019531 15.160156 4.007812 14.835938 4.007812 L 14.835938 4.011719 C 14.523438 4.011719 14.210938 4.023438 13.90625 4.039062 C 11.429688 4.183594 9.089844 4.910156 7.417969 6.703125 C 5.742188 8.5 4.640625 11.441406 4.878906 16.3125 C 4.925781 17.238281 5.324219 19.820312 6.003906 22.890625 C 6.683594 25.957031 7.644531 29.570312 8.800781 32.761719 C 9.957031 35.953125 11.359375 38.730469 12.695312 40.042969 C 13.367188 40.699219 13.949219 40.964844 14.476562 40.945312 C 15.007812 40.917969 15.648438 40.609375 16.429688 39.660156 C 17.964844 37.789062 19.414062 36.136719 20.910156 34.53125 L 20.863281 34.582031 C 19.050781 32.984375 17.914062 30.644531 17.914062 28.035156 Z M 17.914062 28.035156 " fill-opacity="1" fill-rule="nonzero"/><path fill="#101820" d="M 31.101562 3.886719 L 31.101562 3.882812 C 28.207031 3.890625 26.128906 4.773438 24.554688 6.101562 C 22.929688 7.472656 21.839844 9.347656 21.125 11.269531 C 20.273438 13.550781 19.984375 15.757812 19.867188 17.257812 L 19.898438 17.238281 C 20.773438 16.742188 21.921875 16.246094 23.152344 15.957031 C 24.382812 15.667969 25.707031 15.582031 26.90625 16.054688 C 28.105469 16.523438 29.097656 17.632812 29.457031 19.3125 C 31.179688 27.390625 28.921875 30.390625 28.089844 32.65625 C 27.824219 33.308594 27.546875 34.148438 27.316406 35.003906 L 27.277344 35.167969 C 27.382812 35.144531 27.488281 35.113281 27.59375 35.105469 C 28.179688 35.054688 28.640625 35.253906 28.914062 35.371094 C 29.753906 35.726562 30.328125 36.464844 30.636719 37.304688 C 30.71875 37.527344 30.777344 37.765625 30.8125 38.011719 C 30.84375 38.09375 30.859375 38.195312 30.859375 38.296875 C 30.859375 38.304688 30.859375 38.316406 30.859375 38.324219 C 30.820312 39.566406 30.796875 41.019531 30.796875 42.484375 C 30.796875 44.214844 30.832031 45.941406 30.894531 47.660156 C 30.953125 48.964844 31.035156 50.121094 31.136719 51.03125 C 31.242188 51.957031 31.390625 52.660156 31.484375 52.898438 C 31.796875 53.691406 32.257812 54.730469 33.085938 55.433594 C 33.914062 56.140625 35.101562 56.609375 37.269531 56.140625 C 39.152344 55.730469 40.3125 55.164062 41.085938 54.347656 C 41.863281 53.53125 42.324219 52.394531 42.621094 50.65625 C 43.0625 48.054688 43.953125 40.503906 44.0625 39.085938 C 44.011719 38.011719 44.167969 37.191406 44.507812 36.5625 C 44.855469 35.917969 45.398438 35.523438 45.859375 35.3125 C 46.09375 35.203125 46.3125 35.132812 46.492188 35.082031 C 46.273438 34.765625 46.078125 34.503906 45.871094 34.246094 L 45.894531 34.273438 C 45.253906 33.492188 44.707031 32.589844 44.292969 31.621094 L 44.265625 31.550781 C 44.011719 31.03125 43.804688 30.640625 43.582031 30.253906 L 43.632812 30.351562 C 43.308594 29.757812 42.898438 29.011719 42.464844 28.175781 C 41.605469 26.503906 40.667969 24.476562 40.179688 22.5 C 39.691406 20.527344 39.621094 18.484375 40.867188 17.042969 C 41.96875 15.761719 43.90625 15.234375 46.808594 15.53125 C 46.722656 15.269531 46.671875 15.054688 46.523438 14.707031 C 45.820312 13.046875 44.96875 11.613281 43.957031 10.3125 C 41.496094 7.136719 37.519531 3.988281 31.375 3.886719 Z M 31.101562 3.886719 " fill-opacity="1" fill-rule="nonzero"/><path fill="#101820" d="M 19.832031 19.265625 L 19.84375 19.253906 Z M 19.832031 19.265625 " fill-opacity="1" fill-rule="nonzero"/><path fill="#101820" d="M 23.476562 17.585938 L 23.5 17.582031 L 23.523438 17.574219 Z M 23.476562 17.585938 " fill-opacity="1" fill-rule="nonzero"/><path fill="#101820" d="M 26.550781 32.074219 C 27.542969 29.363281 29.5 27.382812 27.851562 19.664062 C 27.582031 18.398438 27.050781 17.886719 26.316406 17.601562 C 25.957031 17.46875 25.542969 17.390625 25.109375 17.390625 C 25.082031 17.390625 25.054688 17.390625 25.027344 17.390625 L 25.03125 17.390625 C 24.503906 17.398438 23.992188 17.464844 23.5 17.582031 C 22.460938 17.847656 21.542969 18.21875 20.691406 18.695312 C 20.371094 18.871094 20.09375 19.054688 19.835938 19.257812 L 19.789062 19.304688 C 19.804688 19.667969 19.875 20.542969 19.90625 21.835938 C 19.933594 23.25 19.898438 25.050781 19.628906 27.003906 C 19.042969 31.242188 22.082031 34.753906 25.652344 34.757812 C 25.863281 33.886719 26.207031 33.003906 26.550781 32.074219 Z M 24.4375 19.753906 C 24.324219 19.636719 24.226562 19.503906 24.152344 19.355469 L 24.148438 19.347656 C 24.082031 19.242188 24.042969 19.117188 24.042969 18.980469 C 24.042969 18.953125 24.046875 18.929688 24.050781 18.90625 C 24.085938 18.640625 24.304688 18.5 24.515625 18.425781 C 24.710938 18.359375 24.929688 18.324219 25.164062 18.324219 C 25.199219 18.324219 25.234375 18.324219 25.273438 18.324219 L 25.269531 18.316406 C 25.398438 18.316406 25.539062 18.328125 25.675781 18.347656 C 26.050781 18.398438 26.386719 18.5 26.636719 18.648438 C 26.765625 18.71875 26.875 18.804688 26.960938 18.910156 L 26.964844 18.914062 C 27.046875 19.007812 27.097656 19.136719 27.097656 19.277344 C 27.097656 19.296875 27.097656 19.316406 27.09375 19.335938 L 27.09375 19.332031 C 27.070312 19.484375 27.003906 19.613281 26.910156 19.714844 C 26.808594 19.839844 26.695312 19.945312 26.566406 20.035156 L 26.5625 20.039062 C 26.3125 20.222656 25.996094 20.332031 25.65625 20.332031 C 25.589844 20.332031 25.523438 20.324219 25.457031 20.316406 L 25.464844 20.316406 C 25.054688 20.25 24.703125 20.046875 24.4375 19.753906 Z M 24.4375 19.753906 " fill-opacity="1" fill-rule="nonzero"/><path fill="#101820" d="M 20.640625 18.71875 C 20.65625 18.710938 20.675781 18.703125 20.691406 18.695312 C 20.691406 18.695312 20.695312 18.691406 20.699219 18.6875 Z M 20.640625 18.71875 " fill-opacity="1" fill-rule="nonzero"/><path fill="#101820" d="M 45.28125 9.300781 C 46.355469 10.679688 47.285156 12.246094 48 13.925781 L 48.050781 14.0625 C 48.324219 14.71875 48.503906 15.269531 48.605469 15.699219 C 48.65625 15.914062 48.691406 16.097656 48.703125 16.285156 C 48.710938 16.378906 48.714844 16.476562 48.675781 16.640625 C 48.675781 16.648438 48.664062 16.667969 48.660156 16.671875 C 48.734375 18.84375 48.199219 20.316406 48.140625 22.390625 C 48.089844 23.894531 48.46875 25.660156 48.5625 27.585938 C 48.652344 29.394531 48.4375 31.382812 47.273438 33.335938 C 47.371094 33.453125 47.460938 33.574219 47.554688 33.691406 C 50.625 28.796875 52.839844 23.378906 54.019531 18.757812 C 54.652344 16.273438 54.988281 14.019531 55.015625 12.234375 C 55.042969 10.449219 54.710938 9.152344 54.296875 8.613281 C 51.007812 4.359375 46.5625 3.273438 42.832031 3.246094 L 42.476562 3.246094 C 41.039062 3.269531 39.648438 3.4375 38.308594 3.726562 C 41.351562 5.09375 43.660156 7.203125 45.28125 9.300781 Z M 45.28125 9.300781 " fill-opacity="1" fill-rule="nonzero"/><g clip-path="url(#e1232f6861)"><path fill="#101820" d="M 31.511719 0.640625 L 31.484375 0.640625 C 28.597656 0.589844 26.121094 1.300781 24.121094 2.480469 C 22.152344 1.789062 18.070312 0.59375 13.761719 0.832031 C 10.765625 1 7.492188 1.921875 5.066406 4.511719 C 2.652344 7.101562 1.375 11.113281 1.640625 16.566406 C 1.714844 18.070312 2.140625 20.527344 2.839844 23.703125 C 3.546875 26.882812 4.53125 30.605469 5.765625 34 C 6.996094 37.394531 8.347656 40.445312 10.457031 42.519531 C 11.507812 43.558594 12.960938 44.429688 14.667969 44.359375 C 15.867188 44.308594 16.953125 43.773438 17.890625 42.988281 C 18.34375 43.597656 18.832031 43.863281 19.273438 44.109375 C 19.832031 44.417969 20.375 44.628906 20.9375 44.765625 C 21.949219 45.023438 23.679688 45.363281 25.707031 45.015625 C 26.398438 44.898438 27.125 44.671875 27.851562 44.34375 C 27.878906 45.164062 27.910156 45.964844 27.941406 46.773438 C 28.042969 49.34375 28.105469 51.714844 28.863281 53.796875 C 28.984375 54.136719 29.324219 55.886719 30.644531 57.429688 C 31.964844 58.976562 34.558594 59.941406 37.511719 59.304688 C 39.59375 58.851562 42.238281 58.039062 44 55.503906 C 45.738281 53 46.519531 49.410156 46.675781 43.582031 C 46.714844 43.265625 46.761719 43 46.808594 42.75 L 47.222656 42.785156 L 47.273438 42.785156 C 49.496094 42.886719 51.90625 42.566406 53.917969 41.621094 C 55.699219 40.785156 57.050781 39.941406 58.035156 38.441406 C 58.28125 38.066406 58.546875 37.617188 58.621094 36.84375 C 58.695312 36.070312 58.257812 34.863281 57.527344 34.304688 C 56.070312 33.183594 55.15625 33.609375 54.171875 33.816406 C 53.296875 34.023438 52.285156 34.152344 51.25 34.175781 L 51.230469 34.175781 C 54.0625 29.351562 56.09375 24.222656 57.25 19.6875 C 57.9375 17.007812 58.320312 14.539062 58.351562 12.378906 C 58.382812 10.21875 58.210938 8.308594 56.929688 6.65625 C 52.9375 1.488281 47.320312 0.0585938 42.976562 0.0117188 C 42.839844 0.0078125 42.703125 0.00390625 42.570312 0.0078125 L 42.570312 0 C 40.207031 0.0195312 37.929688 0.375 35.773438 1.015625 L 35.671875 1.046875 C 34.429688 0.816406 32.984375 0.667969 31.511719 0.640625 Z M 37.382812 2.21875 C 38.902344 1.84375 40.648438 1.617188 42.441406 1.597656 L 42.457031 1.597656 L 42.457031 1.585938 C 46.570312 1.546875 51.820312 2.714844 55.589844 7.589844 C 56.4375 8.6875 56.691406 10.289062 56.660156 12.261719 C 56.628906 14.234375 56.269531 16.59375 55.609375 19.179688 C 54.328125 24.1875 51.914062 30.027344 48.511719 35.265625 C 48.625 35.347656 48.753906 35.417969 48.886719 35.472656 L 48.898438 35.480469 C 49.609375 35.777344 51.226562 36.03125 54.457031 35.359375 C 55.273438 35.1875 55.867188 35.070312 56.484375 35.546875 C 56.761719 35.785156 56.9375 36.136719 56.9375 36.53125 C 56.9375 36.554688 56.9375 36.582031 56.933594 36.605469 L 56.933594 36.601562 C 56.894531 36.917969 56.785156 37.199219 56.613281 37.433594 C 55.988281 38.386719 54.757812 39.285156 53.179688 40.027344 C 51.78125 40.6875 49.777344 41.03125 47.996094 41.050781 C 47.105469 41.058594 46.285156 40.992188 45.585938 40.769531 L 45.539062 40.753906 C 45.269531 43.382812 44.652344 48.570312 44.246094 50.9375 C 43.925781 52.847656 43.359375 54.363281 42.277344 55.5 C 41.199219 56.636719 39.675781 57.320312 37.621094 57.765625 C 35.082031 58.320312 33.226562 57.722656 32.03125 56.703125 C 30.839844 55.6875 30.292969 54.339844 29.964844 53.515625 C 29.738281 52.945312 29.621094 52.203125 29.507812 51.21875 C 29.394531 50.230469 29.3125 49.023438 29.253906 47.664062 C 29.199219 46.28125 29.167969 44.652344 29.167969 43.019531 C 29.167969 42.480469 29.175781 41.945312 29.179688 41.40625 C 28.15625 42.359375 26.863281 43.027344 25.421875 43.285156 L 25.378906 43.292969 C 23.691406 43.582031 22.183594 43.296875 21.285156 43.070312 C 20.808594 42.945312 20.390625 42.777344 20 42.5625 C 19.585938 42.339844 19.195312 42.085938 18.933594 41.585938 C 18.828125 41.394531 18.765625 41.164062 18.765625 40.921875 C 18.765625 40.824219 18.777344 40.726562 18.796875 40.640625 C 18.886719 40.304688 19.070312 40.023438 19.328125 39.824219 C 19.816406 39.425781 20.453125 39.199219 21.425781 38.996094 C 23.183594 38.628906 23.800781 38.378906 24.171875 38.082031 C 24.492188 37.824219 24.851562 37.300781 25.488281 36.539062 C 25.484375 36.515625 25.484375 36.476562 25.480469 36.445312 L 25.480469 36.4375 C 24.28125 36.402344 23.164062 36.078125 22.183594 35.527344 L 22.222656 35.546875 C 21.855469 35.941406 19.980469 37.949219 17.691406 40.734375 C 16.730469 41.902344 15.667969 42.570312 14.546875 42.617188 C 13.425781 42.664062 12.410156 42.09375 11.550781 41.25 C 9.824219 39.554688 8.453125 36.640625 7.253906 33.347656 C 6.058594 30.058594 5.085938 26.390625 4.394531 23.265625 C 3.703125 20.140625 3.296875 17.625 3.234375 16.410156 C 2.976562 11.246094 4.171875 7.769531 6.214844 5.574219 C 8.265625 3.378906 11.070312 2.546875 13.804688 2.390625 C 18.714844 2.105469 23.378906 3.839844 24.324219 4.210938 C 26.140625 2.960938 28.484375 2.183594 31.410156 2.230469 C 32.882812 2.253906 34.296875 2.449219 35.652344 2.800781 L 35.527344 2.773438 L 35.578125 2.75 C 36.050781 2.570312 36.65625 2.390625 37.273438 2.242188 Z M 37.382812 2.21875 " fill-opacity="1" fill-rule="nonzero"/></g></svg>