<svg xmlns="http://www.w3.org/2000/svg" xmlns:xlink="http://www.w3.org/1999/xlink" width="80" zoomAndPan="magnify" viewBox="0 0 60 60" height="80" preserveAspectRatio="xMidYMid meet" version="1.0"><defs><clipPath id="a52929310d"><path d="M 0 2.625 L 60 2.625 L 60 57.375 L 0 57.375 Z M 0 2.625 " clip-rule="nonzero"/></clipPath></defs><g clip-path="url(#a52929310d)"><path fill="#101820" d="M 42.367188 2.734375 C 41.359375 2.699219 40.300781 2.875 39.242188 3.21875 C 37.125 3.90625 34.90625 5.246094 32.625 7.097656 C 31.734375 7.824219 30.832031 8.652344 29.929688 9.535156 C 29.046875 8.675781 28.164062 7.867188 27.289062 7.15625 C 25.015625 5.304688 22.800781 3.96875 20.6875 3.28125 C 18.574219 2.597656 16.46875 2.578125 14.742188 3.574219 C 13.015625 4.570312 11.984375 6.402344 11.519531 8.574219 C 11.058594 10.746094 11.105469 13.335938 11.570312 16.230469 C 11.734375 17.238281 11.964844 18.292969 12.226562 19.367188 C 11.242188 19.667969 10.28125 19.980469 9.394531 20.328125 C 6.710938 21.375 4.492188 22.628906 2.878906 24.121094 C 1.261719 25.613281 0.21875 27.421875 0.21875 29.410156 C 0.21875 31.398438 1.261719 33.203125 2.878906 34.695312 C 4.492188 36.1875 6.710938 37.441406 9.394531 38.488281 C 10.34375 38.859375 11.375 39.195312 12.4375 39.511719 C 12.054688 40.9375 11.742188 42.324219 11.53125 43.636719 C 11.066406 46.535156 11.019531 49.125 11.484375 51.300781 C 11.945312 53.480469 12.980469 55.320312 14.714844 56.324219 C 16.453125 57.324219 18.5625 57.300781 20.683594 56.613281 C 22.800781 55.925781 25.015625 54.589844 27.296875 52.738281 C 28.179688 52.019531 29.074219 51.199219 29.96875 50.324219 C 30.871094 51.203125 31.769531 52.027344 32.65625 52.75 C 34.933594 54.601562 37.148438 55.9375 39.261719 56.625 C 41.375 57.308594 43.476562 57.328125 45.203125 56.332031 C 46.929688 55.335938 47.964844 53.503906 48.425781 51.332031 C 48.890625 49.160156 48.839844 46.570312 48.375 43.675781 C 48.160156 42.359375 47.851562 40.972656 47.46875 39.539062 C 48.566406 39.214844 49.625 38.871094 50.605469 38.488281 C 53.289062 37.441406 55.507812 36.1875 57.121094 34.695312 C 58.738281 33.203125 59.78125 31.398438 59.78125 29.410156 C 59.78125 27.421875 58.738281 25.613281 57.121094 24.121094 C 55.507812 22.628906 53.289062 21.375 50.605469 20.328125 C 49.703125 19.976562 48.730469 19.660156 47.730469 19.355469 C 47.992188 18.273438 48.226562 17.210938 48.390625 16.199219 C 48.855469 13.300781 48.90625 10.707031 48.441406 8.53125 C 47.976562 6.351562 46.941406 4.515625 45.207031 3.511719 C 44.339844 3.011719 43.375 2.769531 42.367188 2.734375 Z M 42.25 5.367188 C 42.882812 5.386719 43.421875 5.535156 43.882812 5.804688 C 44.808594 6.335938 45.492188 7.375 45.855469 9.085938 C 46.21875 10.792969 46.207031 13.101562 45.777344 15.78125 C 45.628906 16.699219 45.414062 17.667969 45.171875 18.664062 C 42.527344 18.027344 39.625 17.554688 36.535156 17.277344 C 34.980469 15.125 33.386719 13.167969 31.777344 11.429688 C 32.628906 10.601562 33.472656 9.824219 34.296875 9.152344 C 36.402344 7.441406 38.394531 6.277344 40.054688 5.738281 C 40.886719 5.46875 41.613281 5.351562 42.25 5.367188 Z M 17.6875 5.375 C 18.324219 5.359375 19.050781 5.476562 19.886719 5.746094 C 21.554688 6.285156 23.546875 7.449219 25.65625 9.164062 C 26.460938 9.820312 27.289062 10.578125 28.121094 11.390625 C 26.5 13.140625 24.894531 15.121094 23.332031 17.289062 C 20.25 17.574219 17.359375 18.050781 14.726562 18.691406 C 14.484375 17.699219 14.273438 16.730469 14.125 15.820312 C 13.695312 13.136719 13.683594 10.828125 14.050781 9.113281 C 14.417969 7.398438 15.105469 6.355469 16.039062 5.816406 C 16.503906 5.546875 17.050781 5.394531 17.6875 5.375 Z M 29.96875 13.292969 C 31.023438 14.441406 32.078125 15.695312 33.125 17.046875 C 32.097656 17.003906 31.054688 16.980469 30 16.980469 C 28.921875 16.980469 27.863281 17.003906 26.816406 17.050781 C 27.859375 15.699219 28.914062 14.441406 29.96875 13.292969 Z M 30 19.59375 C 31.761719 19.59375 33.476562 19.664062 35.144531 19.789062 C 36.292969 21.4375 37.414062 23.1875 38.484375 25.039062 C 39.421875 26.664062 40.273438 28.289062 41.046875 29.894531 C 40.265625 31.519531 39.402344 33.167969 38.449219 34.816406 C 37.609375 36.269531 36.734375 37.648438 35.84375 38.976562 C 33.960938 39.136719 32.007812 39.222656 30 39.222656 C 27.945312 39.222656 25.949219 39.128906 24.019531 38.964844 C 23.144531 37.65625 22.285156 36.292969 21.460938 34.863281 C 20.511719 33.21875 19.648438 31.578125 18.871094 29.957031 C 19.652344 28.324219 20.515625 26.671875 21.472656 25.015625 C 22.535156 23.171875 23.65625 21.433594 24.796875 19.792969 C 26.484375 19.667969 28.21875 19.59375 30 19.59375 Z M 38.480469 20.113281 C 40.613281 20.378906 42.613281 20.746094 44.476562 21.191406 C 43.925781 23.003906 43.242188 24.898438 42.417969 26.855469 C 41.882812 25.820312 41.324219 24.785156 40.726562 23.746094 C 40 22.484375 39.242188 21.285156 38.480469 20.113281 Z M 21.382812 20.132812 C 20.636719 21.28125 19.898438 22.460938 19.183594 23.695312 C 18.578125 24.746094 18.011719 25.796875 17.46875 26.84375 C 16.648438 24.902344 15.972656 23.015625 15.421875 21.214844 C 17.273438 20.769531 19.265625 20.402344 21.382812 20.132812 Z M 47.039062 21.878906 C 47.957031 22.15625 48.84375 22.445312 49.65625 22.761719 C 52.128906 23.730469 54.082031 24.871094 55.351562 26.042969 C 56.617188 27.210938 57.167969 28.328125 57.167969 29.410156 C 57.167969 30.492188 56.617188 31.605469 55.351562 32.777344 C 54.082031 33.945312 52.128906 35.089844 49.65625 36.054688 C 48.75 36.410156 47.757812 36.726562 46.726562 37.03125 C 45.992188 34.753906 45.050781 32.378906 43.933594 29.957031 C 45.21875 27.171875 46.257812 24.457031 47.039062 21.878906 Z M 12.917969 21.890625 C 13.691406 24.445312 14.714844 27.132812 15.980469 29.886719 C 14.855469 32.324219 13.914062 34.714844 13.171875 37.003906 C 12.179688 36.707031 11.21875 36.398438 10.34375 36.054688 C 7.871094 35.089844 5.917969 33.945312 4.648438 32.777344 C 3.382812 31.605469 2.832031 30.492188 2.832031 29.410156 C 2.832031 28.328125 3.382812 27.210938 4.648438 26.042969 C 5.917969 24.871094 7.871094 23.730469 10.34375 22.761719 C 11.144531 22.449219 12.015625 22.164062 12.917969 21.890625 Z M 30 23.464844 C 26.441406 23.464844 23.527344 26.375 23.527344 29.933594 C 23.527344 33.492188 26.441406 36.40625 30 36.40625 C 33.558594 36.40625 36.472656 33.492188 36.472656 29.933594 C 36.472656 26.375 33.558594 23.464844 30 23.464844 Z M 30 26.050781 C 32.160156 26.050781 33.882812 27.777344 33.882812 29.933594 C 33.882812 32.09375 32.160156 33.816406 30 33.816406 C 27.839844 33.816406 26.117188 32.09375 26.117188 29.933594 C 26.117188 27.777344 27.839844 26.050781 30 26.050781 Z M 42.449219 32.992188 C 43.128906 34.601562 43.71875 36.171875 44.214844 37.6875 C 42.660156 38.050781 41 38.355469 39.257812 38.59375 C 39.757812 37.792969 40.253906 36.976562 40.738281 36.140625 C 41.34375 35.089844 41.910156 34.039062 42.449219 32.992188 Z M 17.5 32.996094 C 18.042969 34.046875 18.609375 35.101562 19.21875 36.160156 C 19.699219 36.988281 20.1875 37.792969 20.683594 38.585938 C 18.945312 38.34375 17.292969 38.039062 15.738281 37.679688 C 16.234375 36.167969 16.824219 34.597656 17.5 32.996094 Z M 14.992188 40.191406 C 17.335938 40.746094 19.875 41.171875 22.566406 41.449219 C 24.367188 44.050781 26.238281 46.386719 28.121094 48.425781 C 27.277344 49.25 26.445312 50.019531 25.625 50.683594 C 23.523438 52.398438 21.527344 53.558594 19.867188 54.097656 C 18.203125 54.636719 16.960938 54.566406 16.039062 54.03125 C 15.113281 53.5 14.433594 52.460938 14.070312 50.75 C 13.703125 49.042969 13.714844 46.734375 14.144531 44.054688 C 14.339844 42.839844 14.632812 41.539062 14.992188 40.191406 Z M 44.964844 40.203125 C 45.328125 41.558594 45.621094 42.867188 45.816406 44.085938 C 46.25 46.765625 46.257812 49.078125 45.894531 50.792969 C 45.527344 52.503906 44.839844 53.550781 43.910156 54.089844 C 42.976562 54.628906 41.726562 54.703125 40.058594 54.160156 C 38.390625 53.621094 36.394531 52.453125 34.289062 50.742188 C 33.464844 50.070312 32.625 49.296875 31.777344 48.46875 C 33.675781 46.417969 35.558594 44.070312 37.367188 41.457031 C 40.066406 41.179688 42.613281 40.753906 44.964844 40.203125 Z M 25.945312 41.714844 C 27.273438 41.789062 28.621094 41.835938 30 41.835938 C 31.332031 41.835938 32.636719 41.792969 33.921875 41.722656 C 32.609375 43.496094 31.265625 45.113281 29.933594 46.5625 C 28.597656 45.109375 27.257812 43.492188 25.945312 41.714844 Z M 25.945312 41.714844 " fill-opacity="1" fill-rule="nonzero"/></g></svg>