<svg xmlns="http://www.w3.org/2000/svg" xmlns:xlink="http://www.w3.org/1999/xlink" width="80" zoomAndPan="magnify" viewBox="0 0 60 60" height="80" preserveAspectRatio="xMidYMid meet" version="1.0"><defs><clipPath id="bf55ac30a4"><path d="M 0 29.996094 C 0 28.027344 0.191406 26.074219 0.578125 24.144531 C 0.960938 22.210938 1.53125 20.335938 2.285156 18.515625 C 3.035156 16.695312 3.960938 14.96875 5.054688 13.332031 C 6.148438 11.691406 7.394531 10.179688 8.785156 8.785156 C 10.179688 7.394531 11.691406 6.148438 13.332031 5.054688 C 14.96875 3.960938 16.695312 3.035156 18.515625 2.285156 C 20.335938 1.53125 22.210938 0.960938 24.144531 0.578125 C 26.074219 0.191406 28.027344 0 29.996094 0 C 31.964844 0 33.914062 0.191406 35.847656 0.578125 C 37.777344 0.960938 39.65625 1.53125 41.472656 2.285156 C 43.292969 3.035156 45.023438 3.960938 46.660156 5.054688 C 48.296875 6.148438 49.8125 7.394531 51.207031 8.785156 C 52.597656 10.179688 53.84375 11.691406 54.9375 13.332031 C 56.03125 14.96875 56.953125 16.695312 57.707031 18.515625 C 58.460938 20.335938 59.03125 22.210938 59.414062 24.144531 C 59.800781 26.074219 59.992188 28.027344 59.992188 29.996094 C 59.992188 31.964844 59.800781 33.914062 59.414062 35.847656 C 59.03125 37.777344 58.460938 39.65625 57.707031 41.472656 C 56.953125 43.292969 56.03125 45.023438 54.9375 46.660156 C 53.84375 48.296875 52.597656 49.8125 51.207031 51.207031 C 49.8125 52.597656 48.296875 53.84375 46.660156 54.9375 C 45.023438 56.03125 43.292969 56.953125 41.472656 57.707031 C 39.65625 58.460938 37.777344 59.03125 35.847656 59.414062 C 33.914062 59.800781 31.964844 59.992188 29.996094 59.992188 C 28.027344 59.992188 26.074219 59.800781 24.144531 59.414062 C 22.210938 59.03125 20.335938 58.460938 18.515625 57.707031 C 16.695312 56.953125 14.96875 56.03125 13.332031 54.9375 C 11.691406 53.84375 10.179688 52.597656 8.785156 51.207031 C 7.394531 49.8125 6.148438 48.296875 5.054688 46.660156 C 3.960938 45.023438 3.035156 43.292969 2.285156 41.472656 C 1.53125 39.65625 0.960938 37.777344 0.578125 35.847656 C 0.191406 33.914062 0 31.964844 0 29.996094 Z M 0 29.996094 " clip-rule="nonzero"/></clipPath></defs><g clip-path="url(#bf55ac30a4)"><rect x="-6" width="72" fill="#012169" y="-6" height="72" fill-opacity="1"/><path fill="#ffffff" d="M 71.664062 6.707031 L 39.3125 30 L 71.664062 53.292969 L 71.664062 60 L 62.347656 60 L 29.996094 36.707031 L -2.355469 60 L -11.671875 60 L -11.671875 53.292969 L 20.679688 30 L -11.671875 6.707031 L -11.671875 0 L -2.355469 0 L 29.996094 23.292969 L 62.347656 0 L 71.664062 0 Z M 71.664062 6.707031 " fill-opacity="1" fill-rule="nonzero"/><path fill="#ffffff" d="M 36.941406 60 L 23.050781 60 L 23.050781 40 L -11.671875 40 L -11.671875 20 L 23.050781 20 L 23.050781 0 L 36.941406 0 L 36.941406 20 L 71.664062 20 L 71.664062 40 L 36.941406 40 Z M 36.941406 60 " fill-opacity="1" fill-rule="nonzero"/><path fill="#c8102e" d="M 71.664062 36 L 34.164062 36 L 34.164062 60 L 25.828125 60 L 25.828125 36 L -11.675781 36 L -11.675781 24 L 25.828125 24 L 25.828125 0 L 34.164062 0 L 34.164062 24 L 71.664062 24 Z M 71.664062 36 " fill-opacity="1" fill-rule="nonzero"/><path fill="#c8102e" d="M 9.894531 20 L -11.671875 4.472656 L -11.671875 0.00390625 L 16.097656 20 Z M 43.886719 20 L 71.664062 0 L 65.453125 0 L 37.671875 20 Z M 43.898438 40 L 71.664062 59.992188 L 71.664062 55.527344 L 50.097656 40 Z M 16.105469 40 L -11.671875 60 L -5.460938 60 L 22.316406 40 Z M 16.105469 40 " fill-opacity="1" fill-rule="nonzero"/></g></svg>